<mxfile host="Electron" modified="2023-08-06T13:43:51.698Z" agent="Mozilla/5.0 (Windows NT 10.0; Win64; x64) AppleWebKit/537.36 (KHTML, like Gecko) draw.io/21.6.5 Chrome/114.0.5735.243 Electron/25.3.1 Safari/537.36" etag="jfRfVWobKIR4N_P6yZ3O" version="21.6.5" type="device">
  <diagram name="Page-1" id="G4_pkOKNAeqDVUKTrS70">
    <mxGraphModel dx="880" dy="511" grid="1" gridSize="10" guides="1" tooltips="1" connect="1" arrows="1" fold="1" page="1" pageScale="1" pageWidth="1169" pageHeight="827" math="0" shadow="0">
      <root>
        <mxCell id="0" />
        <mxCell id="1" parent="0" />
        <mxCell id="_lcSiTta4-4Xzwyi_SXP-16" style="edgeStyle=orthogonalEdgeStyle;rounded=0;orthogonalLoop=1;jettySize=auto;html=1;exitX=0.5;exitY=0;exitDx=0;exitDy=0;dashed=1;endArrow=none;endFill=0;targetPerimeterSpacing=0;" edge="1" parent="1">
          <mxGeometry relative="1" as="geometry">
            <mxPoint x="155" y="40" as="targetPoint" />
            <mxPoint x="155" y="89.99999999999994" as="sourcePoint" />
          </mxGeometry>
        </mxCell>
        <mxCell id="_lcSiTta4-4Xzwyi_SXP-1" value="Job" style="swimlane;fontStyle=1;align=center;verticalAlign=top;childLayout=stackLayout;horizontal=1;startSize=30;horizontalStack=0;resizeParent=1;resizeParentMax=0;resizeLast=0;collapsible=0;marginBottom=0;html=1;whiteSpace=wrap;" vertex="1" parent="1">
          <mxGeometry x="130" y="80" width="50" height="60" as="geometry" />
        </mxCell>
        <mxCell id="_lcSiTta4-4Xzwyi_SXP-2" value="salaray" style="text;html=1;strokeColor=none;fillColor=none;align=left;verticalAlign=middle;spacingLeft=4;spacingRight=4;overflow=hidden;rotatable=0;points=[[0,0.5],[1,0.5]];portConstraint=eastwest;whiteSpace=wrap;" vertex="1" parent="_lcSiTta4-4Xzwyi_SXP-1">
          <mxGeometry y="30" width="50" height="30" as="geometry" />
        </mxCell>
        <mxCell id="_lcSiTta4-4Xzwyi_SXP-5" style="edgeStyle=orthogonalEdgeStyle;rounded=0;orthogonalLoop=1;jettySize=auto;html=1;endArrow=none;endFill=0;" edge="1" parent="1" source="_lcSiTta4-4Xzwyi_SXP-3" target="_lcSiTta4-4Xzwyi_SXP-4">
          <mxGeometry relative="1" as="geometry" />
        </mxCell>
        <mxCell id="_lcSiTta4-4Xzwyi_SXP-6" value="person" style="edgeLabel;html=1;align=center;verticalAlign=middle;resizable=0;points=[];" vertex="1" connectable="0" parent="_lcSiTta4-4Xzwyi_SXP-5">
          <mxGeometry x="-0.5889" y="-1" relative="1" as="geometry">
            <mxPoint x="-17" y="8" as="offset" />
          </mxGeometry>
        </mxCell>
        <mxCell id="_lcSiTta4-4Xzwyi_SXP-7" value="company" style="edgeLabel;html=1;align=center;verticalAlign=middle;resizable=0;points=[];" vertex="1" connectable="0" parent="_lcSiTta4-4Xzwyi_SXP-5">
          <mxGeometry x="0.7889" relative="1" as="geometry">
            <mxPoint x="-12" y="10" as="offset" />
          </mxGeometry>
        </mxCell>
        <mxCell id="_lcSiTta4-4Xzwyi_SXP-8" value="*" style="edgeLabel;html=1;align=center;verticalAlign=middle;resizable=0;points=[];" vertex="1" connectable="0" parent="_lcSiTta4-4Xzwyi_SXP-5">
          <mxGeometry x="-0.6556" y="-1" relative="1" as="geometry">
            <mxPoint x="-23" y="-10" as="offset" />
          </mxGeometry>
        </mxCell>
        <mxCell id="_lcSiTta4-4Xzwyi_SXP-9" value="1..*" style="edgeLabel;html=1;align=center;verticalAlign=middle;resizable=0;points=[];" vertex="1" connectable="0" parent="_lcSiTta4-4Xzwyi_SXP-5">
          <mxGeometry x="0.7333" y="-1" relative="1" as="geometry">
            <mxPoint x="6" y="-10" as="offset" />
          </mxGeometry>
        </mxCell>
        <mxCell id="_lcSiTta4-4Xzwyi_SXP-15" value="Job" style="edgeLabel;html=1;align=center;verticalAlign=middle;resizable=0;points=[];" vertex="1" connectable="0" parent="_lcSiTta4-4Xzwyi_SXP-5">
          <mxGeometry x="0.0111" y="1" relative="1" as="geometry">
            <mxPoint y="-10" as="offset" />
          </mxGeometry>
        </mxCell>
        <mxCell id="_lcSiTta4-4Xzwyi_SXP-3" value="&lt;b&gt;Person&lt;/b&gt;" style="whiteSpace=wrap;html=1;" vertex="1" parent="1">
          <mxGeometry y="20" width="60" height="30" as="geometry" />
        </mxCell>
        <mxCell id="_lcSiTta4-4Xzwyi_SXP-4" value="&lt;b&gt;Company&lt;/b&gt;" style="whiteSpace=wrap;html=1;" vertex="1" parent="1">
          <mxGeometry x="240" y="20" width="80" height="30" as="geometry" />
        </mxCell>
        <mxCell id="_lcSiTta4-4Xzwyi_SXP-17" value="&lt;b&gt;Figure 11.35 Example AssociationClass Job, which is defined between the two Classes Person and Company&lt;/b&gt;" style="text;html=1;align=left;verticalAlign=middle;resizable=0;points=[];autosize=1;strokeColor=none;fillColor=none;" vertex="1" parent="1">
          <mxGeometry y="150" width="650" height="30" as="geometry" />
        </mxCell>
      </root>
    </mxGraphModel>
  </diagram>
</mxfile>
